# xmcd
#
# Track frame offsets: 
#        150
#        14828
#        27954
#        40393
#        51886
#        63565
#        84790
#        103072
#        124860
#        145066
#        166020
#        177732
#        189408
#        201389
#        215903
#        231875
#        247185
#        263010
#        270251
#
# Disc length: 3699 seconds
#
# Revision: 0
# Processed by: cddbd v1.5.2PL0 Copyright (c) Steve Scherf et al.
# Submitted via: ExactAudioCopy v0.95b3
#
DISCID=1b0e7113
DTITLE=The Monkees - The Monkees Complete 12 of 28
DYEAR=1900
DGENRE=
TTITLE0=A Man Without A Dream (alt. version backing track)
TTITLE1=Cuddly Toy (Harry Nilsson demo)
TTITLE2=Cuddly Toy (alt. mix 1)
TTITLE3=Cuddly Toy (alt. mix 2)
TTITLE4=Daily Nightly (alt. mix)
TTITLE5=Goin' Down
TTITLE6=Goin' Down (alt. mix 1)
TTITLE7=Goin' Down (alt. mix 2)
TTITLE8=Goin' Down (single mix stereo)
TTITLE9=Goin' Down (4.1 composite)
TTITLE10=Love Is Only Sleeping (alt. mix 1)
TTITLE11=Love Is Only Sleeping (alt. mix 2)
TTITLE12=Mr. Richland's Favorite Song (group demo with Nilsson)
TTITLE13=Pleasant Valley Sunday (single mix)
TTITLE14=Pleasant Valley Sunday (backing track)
TTITLE15=Pleasant Valley Sunday (alt. mix)
TTITLE16=Pleasant Valley Sunday (4.1 composite)
TTITLE17=Riu Chiu (version with Chip Douglas)
TTITLE18=Riu Chiu (version with Davy)
EXTD=
EXTT0=
EXTT1=
EXTT2=
EXTT3=
EXTT4=
EXTT5=
EXTT6=
EXTT7=
EXTT8=
EXTT9=
EXTT10=
EXTT11=
EXTT12=
EXTT13=
EXTT14=
EXTT15=
EXTT16=
EXTT17=
EXTT18=
PLAYORDER=
